<svg id="visual" viewBox="0 0 900 900" width="900" height="900" xmlns="http://www.w3.org/2000/svg" xmlns:xlink="http://www.w3.org/1999/xlink" version="1.1"><rect x="0" y="0" width="900" height="900" fill="#ffffff"></rect><g transform="translate(414.07426501818816 414.8715542555658)"><path d="M182.6 -299.6C247.6 -278.8 318.6 -251.9 361.6 -201C404.5 -150 419.2 -75 408.4 -6.3C397.6 62.5 361.2 125 325.1 187.8C289 250.6 253.3 313.6 199.1 352.1C145 390.5 72.5 404.2 -0.2 404.5C-72.8 404.8 -145.7 391.6 -186.3 345.4C-226.9 299.2 -235.2 219.9 -256 156.8C-276.7 93.8 -309.9 46.9 -327.3 -10.1C-344.7 -67 -346.4 -134 -318.1 -183.9C-289.8 -233.9 -231.4 -266.8 -173.4 -291.6C-115.3 -316.4 -57.7 -333.2 0.6 -334.2C58.8 -335.2 117.7 -320.5 182.6 -299.6" fill="#fbb034"></path></g></svg>