<svg id="visual" viewBox="0 0 900 900" width="900" height="900" xmlns="http://www.w3.org/2000/svg" xmlns:xlink="http://www.w3.org/1999/xlink" version="1.1"><rect x="0" y="0" width="900" height="900" fill="#ffffff"></rect><g transform="translate(439.0849838957863 451.16486665161165)"><path d="M179.6 -336.2C220.2 -287.6 231.9 -214.1 262 -153.9C292.1 -93.8 340.5 -46.9 364.9 14.1C389.2 75 389.5 150 362 214.7C334.5 279.3 279.2 333.7 214.3 365C149.3 396.3 74.7 404.7 10.9 385.8C-52.8 366.8 -105.7 320.7 -148 276.3C-190.2 231.9 -222 189.2 -257.9 143.4C-293.8 97.7 -333.9 48.8 -351.4 -10.1C-368.8 -69 -363.7 -138 -327.8 -183.8C-291.9 -229.5 -225.2 -252 -165.4 -289.5C-105.7 -327 -52.8 -379.5 8.3 -393.9C69.5 -408.4 139 -384.8 179.6 -336.2" fill="#fbb034"></path></g></svg>