<svg id="visual" viewBox="0 0 900 900" width="900" height="900" xmlns="http://www.w3.org/2000/svg" xmlns:xlink="http://www.w3.org/1999/xlink" version="1.1"><rect x="0" y="0" width="900" height="900" fill="#ffffff"></rect><g transform="translate(458.10074901974383 464.4187383068327)"><path d="M174 -317.6C221.4 -274.1 252.7 -219 268.9 -164.2C285 -109.3 286 -54.7 299.9 8C313.7 70.7 340.5 141.3 318.8 186.7C297.1 232 227.1 252 165.9 277.8C104.7 303.6 52.3 335.3 -10.5 353.5C-73.3 371.7 -146.7 376.4 -196.5 344C-246.3 311.5 -272.5 242 -282.7 178.5C-292.9 115 -287.1 57.5 -302.3 -8.7C-317.4 -75 -353.6 -150 -340.3 -208.2C-327 -266.3 -264.2 -307.7 -199.3 -341C-134.3 -374.3 -67.2 -399.7 -1.9 -396.3C63.3 -393 126.7 -361.1 174 -317.6" fill="#ffdd00"></path></g></svg>