<svg id="visual" viewBox="0 0 900 900" width="900" height="900" xmlns="http://www.w3.org/2000/svg" xmlns:xlink="http://www.w3.org/1999/xlink" version="1.1"><rect x="0" y="0" width="900" height="900" fill="#ffffff"></rect><g transform="translate(458.264379549036 432.93892614999686)"><path d="M159.7 -256.9C220 -241.7 291 -225.4 324.5 -182.3C358 -139.3 354 -69.7 358.6 2.7C363.2 75 376.5 150 352.7 209.9C329 269.8 268.2 314.6 203.3 339.9C138.3 365.3 69.2 371.1 11.1 351.8C-46.9 332.5 -93.8 288.1 -155.1 260.6C-216.4 233.2 -292.3 222.9 -336 182.3C-379.7 141.7 -391.4 70.8 -377.4 8.1C-363.4 -54.7 -323.7 -109.3 -291.5 -169.8C-259.2 -230.3 -234.4 -296.6 -187 -319.2C-139.7 -341.9 -69.8 -321 -10.1 -303.5C49.7 -286 99.3 -272.1 159.7 -256.9" fill="#ffdd00"></path></g></svg>