<svg id="visual" viewBox="0 0 900 900" width="900" height="900" xmlns="http://www.w3.org/2000/svg" xmlns:xlink="http://www.w3.org/1999/xlink" version="1.1"><rect x="0" y="0" width="900" height="900" fill="#ffffff"></rect><g transform="translate(441.3920079149415 452.1822504506563)"><path d="M197.2 -351.7C244.4 -314.3 263.8 -238.9 292.1 -174C320.5 -109 357.7 -54.5 351.1 -3.8C344.5 46.9 294.1 93.8 254.5 139.2C214.9 184.7 186.2 228.7 145.6 274.6C105 320.5 52.5 368.3 -4.5 376.1C-61.5 383.9 -123 351.7 -167.6 308.1C-212.2 264.5 -239.9 209.5 -270.2 156.3C-300.4 103 -333.2 51.5 -334.6 -0.8C-336.1 -53.2 -306.2 -106.3 -269.6 -148.6C-233 -190.9 -189.8 -222.3 -143.7 -260.4C-97.7 -298.5 -48.8 -343.2 13.1 -365.9C75 -388.6 150 -389.1 197.2 -351.7" fill="#ffdd00"></path></g></svg>