<svg id="visual" viewBox="0 0 675 900" width="675" height="900" xmlns="http://www.w3.org/2000/svg" xmlns:xlink="http://www.w3.org/1999/xlink" version="1.1"><rect x="0" y="0" width="675" height="900" fill="#FCAF3C"></rect><path d="M115 0L116.8 8.8C118.7 17.7 122.3 35.3 127 53C131.7 70.7 137.3 88.3 126.7 106C116 123.7 89 141.3 78 159C67 176.7 72 194.3 72 212C72 229.7 67 247.3 71.3 265C75.7 282.7 89.3 300.3 96.8 318C104.3 335.7 105.7 353.3 101 371C96.3 388.7 85.7 406.3 77 423.8C68.3 441.3 61.7 458.7 73.7 476.2C85.7 493.7 116.3 511.3 118 529C119.7 546.7 92.3 564.3 82.7 582C73 599.7 81 617.3 84.8 635C88.7 652.7 88.3 670.3 86 688C83.7 705.7 79.3 723.3 77 741C74.7 758.7 74.3 776.3 84.8 794C95.3 811.7 116.7 829.3 116.7 847C116.7 864.7 95.3 882.3 84.7 891.2L74 900" fill="none" stroke-linecap="round" stroke-linejoin="miter" stroke="#F7770F" stroke-width="16"></path></svg>