<svg id="visual" viewBox="0 0 675 900" width="675" height="900" xmlns="http://www.w3.org/2000/svg" xmlns:xlink="http://www.w3.org/1999/xlink" version="1.1"><rect x="0" y="0" width="675" height="900" fill="#FCAF3C"></rect><path d="M98 0L91.5 8.8C85 17.7 72 35.3 73.2 53C74.3 70.7 89.7 88.3 103 106C116.3 123.7 127.7 141.3 119.7 159C111.7 176.7 84.3 194.3 86.3 212C88.3 229.7 119.7 247.3 120.8 265C122 282.7 93 300.3 78.7 318C64.3 335.7 64.7 353.3 77.8 371C91 388.7 117 406.3 124 423.8C131 441.3 119 458.7 117.3 476.2C115.7 493.7 124.3 511.3 130.3 529C136.3 546.7 139.7 564.3 139 582C138.3 599.7 133.7 617.3 124.3 635C115 652.7 101 670.3 95.8 688C90.7 705.7 94.3 723.3 97 741C99.7 758.7 101.3 776.3 106.2 794C111 811.7 119 829.3 111.3 847C103.7 864.7 80.3 882.3 68.7 891.2L57 900" fill="none" stroke-linecap="round" stroke-linejoin="miter" stroke="#F7770F" stroke-width="16"></path></svg>